<?xml version="1.0" encoding="UTF-8"?> <svg xmlns="http://www.w3.org/2000/svg" width="125" height="125" viewBox="0 0 125 125" fill="none"><rect x="77.9697" y="26.8227" width="48" height="72" rx="4" transform="rotate(12 77.9697 26.8227)" fill="url(#paint0_linear_3117_1836)"></rect><rect opacity="0.8" x="78.4647" y="30.5061" width="43.3182" height="65" rx="1.75" transform="rotate(12 78.4647 30.5061)" stroke="#085076" stroke-width="2.5"></rect><rect width="48" height="72" rx="4" transform="matrix(-0.978148 0.207912 0.207912 0.978148 46.9512 26.8227)" fill="url(#paint1_linear_3117_1836)"></rect><rect opacity="0.8" x="-0.962795" y="1.48257" width="43.3182" height="65" rx="1.75" transform="matrix(-0.978148 0.207912 0.207912 0.978148 45.2062 29.2561)" stroke="#085076" stroke-width="2.5"></rect><mask id="mask0_3117_1836" style="mask-type:alpha" maskUnits="userSpaceOnUse" x="0" y="27" width="62" height="80"><rect width="48" height="72" rx="4" transform="matrix(-0.978148 0.207912 0.207912 0.978148 46.9512 26.8227)" fill="url(#paint2_linear_3117_1836)"></rect></mask><g mask="url(#mask0_3117_1836)"><g style="mix-blend-mode:multiply" opacity="0.25"><rect x="31" y="29" width="63" height="76" fill="#838F8F"></rect></g></g><mask id="mask1_3117_1836" style="mask-type:alpha" maskUnits="userSpaceOnUse" x="63" y="27" width="62" height="80"><rect x="77.9697" y="26.8227" width="48" height="72" rx="4" transform="rotate(12 77.9697 26.8227)" fill="url(#paint3_linear_3117_1836)"></rect></mask><g mask="url(#mask1_3117_1836)"><g style="mix-blend-mode:multiply" opacity="0.25"><rect x="30" y="29" width="65" height="76" fill="#838F8F"></rect></g></g><rect x="35" y="21" width="56" height="86" rx="4" fill="url(#paint4_linear_3117_1836)"></rect><rect x="35.25" y="21.25" width="55.5" height="85.5" rx="3.75" stroke="url(#paint5_linear_3117_1836)" stroke-opacity="0.4" stroke-width="0.5"></rect><mask id="path-11-inside-1_3117_1836" fill="white"><path fill-rule="evenodd" clip-rule="evenodd" d="M55 63C55 65.2091 53.2091 67 51 67C48.7909 67 47 65.2091 47 63C47 60.7909 48.7909 59 51 59C53.2091 59 55 60.7909 55 63ZM67 63C67 65.2091 65.2091 67 63 67C60.7909 67 59 65.2091 59 63C59 60.7909 60.7909 59 63 59C65.2091 59 67 60.7909 67 63ZM75 67C77.2091 67 79 65.2091 79 63C79 60.7909 77.2091 59 75 59C72.7909 59 71 60.7909 71 63C71 65.2091 72.7909 67 75 67Z"></path></mask><path fill-rule="evenodd" clip-rule="evenodd" d="M55 63C55 65.2091 53.2091 67 51 67C48.7909 67 47 65.2091 47 63C47 60.7909 48.7909 59 51 59C53.2091 59 55 60.7909 55 63ZM67 63C67 65.2091 65.2091 67 63 67C60.7909 67 59 65.2091 59 63C59 60.7909 60.7909 59 63 59C65.2091 59 67 60.7909 67 63ZM75 67C77.2091 67 79 65.2091 79 63C79 60.7909 77.2091 59 75 59C72.7909 59 71 60.7909 71 63C71 65.2091 72.7909 67 75 67Z" fill="url(#paint6_linear_3117_1836)"></path><path d="M51 67.5C53.4853 67.5 55.5 65.4853 55.5 63H54.5C54.5 64.933 52.933 66.5 51 66.5V67.5ZM46.5 63C46.5 65.4853 48.5147 67.5 51 67.5V66.5C49.067 66.5 47.5 64.933 47.5 63H46.5ZM51 58.5C48.5147 58.5 46.5 60.5147 46.5 63H47.5C47.5 61.067 49.067 59.5 51 59.5V58.5ZM55.5 63C55.5 60.5147 53.4853 58.5 51 58.5V59.5C52.933 59.5 54.5 61.067 54.5 63H55.5ZM63 67.5C65.4853 67.5 67.5 65.4853 67.5 63H66.5C66.5 64.933 64.933 66.5 63 66.5V67.5ZM58.5 63C58.5 65.4853 60.5147 67.5 63 67.5V66.5C61.067 66.5 59.5 64.933 59.5 63H58.5ZM63 58.5C60.5147 58.5 58.5 60.5147 58.5 63H59.5C59.5 61.067 61.067 59.5 63 59.5V58.5ZM67.5 63C67.5 60.5147 65.4853 58.5 63 58.5V59.5C64.933 59.5 66.5 61.067 66.5 63H67.5ZM78.5 63C78.5 64.933 76.933 66.5 75 66.5V67.5C77.4853 67.5 79.5 65.4853 79.5 63H78.5ZM75 59.5C76.933 59.5 78.5 61.067 78.5 63H79.5C79.5 60.5147 77.4853 58.5 75 58.5V59.5ZM71.5 63C71.5 61.067 73.067 59.5 75 59.5V58.5C72.5147 58.5 70.5 60.5147 70.5 63H71.5ZM75 66.5C73.067 66.5 71.5 64.933 71.5 63H70.5C70.5 65.4853 72.5147 67.5 75 67.5V66.5Z" fill="url(#paint7_linear_3117_1836)" fill-opacity="0.4" mask="url(#path-11-inside-1_3117_1836)"></path><g style="mix-blend-mode:screen" opacity="0.8"><rect x="40.25" y="26.25" width="45.5" height="75.5" rx="1.75" stroke="#CEECFC" stroke-width="2.5"></rect></g><defs><linearGradient id="paint0_linear_3117_1836" x1="77.9697" y1="26.8227" x2="142.623" y2="73.8874" gradientUnits="userSpaceOnUse"><stop stop-color="#0D80BE"></stop><stop offset="1" stop-color="#085076"></stop></linearGradient><linearGradient id="paint1_linear_3117_1836" x1="0" y1="0" x2="64.653" y2="47.0647" gradientUnits="userSpaceOnUse"><stop stop-color="#0D80BE"></stop><stop offset="1" stop-color="#085076"></stop></linearGradient><linearGradient id="paint2_linear_3117_1836" x1="0" y1="0" x2="64.653" y2="47.0647" gradientUnits="userSpaceOnUse"><stop stop-color="#0D80BE"></stop><stop offset="1" stop-color="#085076"></stop></linearGradient><linearGradient id="paint3_linear_3117_1836" x1="77.9697" y1="26.8227" x2="142.623" y2="73.8874" gradientUnits="userSpaceOnUse"><stop stop-color="#0D80BE"></stop><stop offset="1" stop-color="#085076"></stop></linearGradient><linearGradient id="paint4_linear_3117_1836" x1="102" y1="135" x2="44.5455" y2="25.8864" gradientUnits="userSpaceOnUse"><stop stop-color="#0D80BE"></stop><stop offset="0.512905" stop-color="#3FB3F2"></stop><stop offset="0.999759" stop-color="#9FD9F8"></stop></linearGradient><linearGradient id="paint5_linear_3117_1836" x1="53.4545" y1="33.7045" x2="105.267" y2="80.7926" gradientUnits="userSpaceOnUse"><stop stop-color="white"></stop><stop offset="1" stop-color="white" stop-opacity="0.1"></stop></linearGradient><linearGradient id="paint6_linear_3117_1836" x1="63" y1="51" x2="75" y2="81" gradientUnits="userSpaceOnUse"><stop stop-color="white"></stop><stop offset="1" stop-color="#9FD9F8"></stop></linearGradient><linearGradient id="paint7_linear_3117_1836" x1="53.6667" y1="59.3333" x2="55.2294" y2="69.6028" gradientUnits="userSpaceOnUse"><stop stop-color="white"></stop><stop offset="1" stop-color="white" stop-opacity="0.1"></stop></linearGradient></defs></svg> 