<?xml version="1.0" encoding="UTF-8"?>
<svg id="Layer_1" data-name="Layer 1" xmlns="http://www.w3.org/2000/svg" version="1.1" viewBox="0 0 1660 400">
  <path d="M390.6398,366.3773l-69.575-139.1457c-1.1741,9.4132-3.1369,18.799-6.6524,27.4232-3.1369,8.6355-7.4456,16.8338-12.4867,24.6782l28.1486,56.428-159.9008-67.0285c-15.6216-6.6727-27.373-18.8011-33.6301-34.8867-5.8758-16.0849-5.0848-33.3155,2.74-48.2281l57.8675-116.4307,57.8677,116.035c7.4434,15.3083,8.6152,32.525,2.7403,48.2295-9.8095,26.8482-32.7855,34.6539-34.4073,35.281l44.9448,18.7988c12.1307-10.9814,21.4963-24.6782,27.3712-39.9886,9.7893-26.2478,8.2208-55.6348-4.3065-80.7529L215.1172,15.2191c-3.1355-7.0676-10.1836-11.3788-17.9661-11.3788s-14.8306,4.3112-17.9661,11.3788l-75.8337,152.0514c-12.4858,25.0755-14.0538,54.4625-4.3078,80.7544,9.7881,26.2489,30.113,47.4365,55.904,58.3908l209.8873,88.1755c2.3459,1.1741,5.0862,1.5684,7.8265,1.5684,5.4783,0,10.9589-2.3595,14.8439-6.276,5.4805-6.6704,6.6524-16.0856,3.1346-23.5064Z" fill="#fff" stroke-width="0"/>
  <path d="M122.8876,311.1234l-58.6585,24.6805,28.1498-56.0314c-5.0846-7.8467-9.3927-16.0878-12.4858-24.6805-3.1355-9.0321-5.4803-18.4044-6.6526-27.4226L3.6639,366.3773c-3.9124,7.4636-2.3446,16.8338,3.1356,22.7154,3.9125,4.311,9.3927,6.276,14.8306,6.276,2.7402,0,5.4803-.3966,7.839-1.5685l141.1022-59.1705-24.2372-10.2062c-8.2204-3.1369-16.0171-7.8016-23.4465-13.3002Z" fill="#fff" stroke-width="0"/>
  <path d="M632.5346,105.472v25.1052c-16.555-19.0125-41.2682-29.8482-68.3693-29.8482-56.6346,0-99.3556,44.2646-99.3556,102.9991s42.721,102.2099,99.3556,102.2099c27.1011,0,51.7866-10.8357,68.3693-29.8467v25.0903h39.3043V105.472h-39.3043ZM567.7289,268.5678c-36.7014,0-64.4031-28.0447-64.4031-65.2406s28.2896-65.6419,64.4031-65.6419,64.8056,28.2181,64.8056,65.6419-27.263,65.2406-64.8056,65.2406Z" fill="#fff" stroke-width="0"/>
  <path d="M808.9779,100.7289c-27.1948,0-52.187,10.8758-69.1297,29.9017v-25.1586h-38.5162v270.1303h38.5162v-99.5792c16.9426,19.0536,41.9349,29.9149,69.1297,29.9149,56.8754,0,99.771-44.2908,99.771-102.9983s-42.8956-102.2108-99.771-102.2108ZM805.4143,138.0993c36.9399,0,64.8035,28.2183,64.8035,65.6421s-28.4643,65.2417-64.8035,65.2417-65.5661-28.0447-65.5661-65.2417,27.5697-65.6421,65.5661-65.6421Z" fill="#fff" stroke-width="0"/>
  <path d="M1037.6274,100.7289c-27.1948,0-52.1892,10.8758-69.1574,29.9017v-25.1586h-38.4906v270.1303h38.4906v-99.5792c16.9683,19.0536,41.9627,29.9149,69.1574,29.9149,56.8732,0,99.7689-44.2908,99.7689-102.9983s-42.8957-102.2108-99.7689-102.2108ZM1034.0616,138.0993c36.9421,0,64.8057,28.2183,64.8057,65.6421s-28.4643,65.2417-64.8057,65.2417-65.5917-28.0447-65.5917-65.2417,27.5973-65.6421,65.5917-65.6421Z" fill="#fff" stroke-width="0"/>
  <path d="M1240.6883,23.957h22.2274v32.614h-17.8757c-20.453,0-29.9851,9.513-29.9851,30.0084v18.8923h47.8608v34.1906h-47.8608v161.5191h-38.9039v-161.5059h-38.759v-34.1904h38.759v-16.5275c0-43.7434,21.0942-65.0007,64.5373-65.0007Z" fill="#fff" stroke-width="0"/>
  <path d="M1465.8445,105.4711v34.1906h-23.0157c-28.4643,0-45.4198,18.1707-45.4198,48.6202v112.8995h-38.9038V105.4711h38.9038v23.101c11.6154-15.1112,27.7977-23.101,47.0089-23.101h21.4266Z" fill="#fff" stroke-width="0"/>
  <path d="M1563.9135,100.7289c-55.6591,0-100.9254,46.7376-100.9254,104.1894s43.0298,101.0345,100.1437,101.0345c46.3527,0,83.8954-26.6409,93.3893-66.2818l.36-1.5507h-38.5439l-.2663.9351c-5.3018,19.7331-27.1032,33.5083-52.9772,33.5083-34.4307,0-60.6649-24.611-64.2838-60.0164h156.3246l.1875-1.0555c1.1865-6.8408,1.1865-12.3856,1.1865-16.4472,0-53.7375-40.6591-94.3158-94.5949-94.3158ZM1563.9199,134.5332c29.2248,0,52.547,19.4134,54.8177,45.3603h-114.8434c8.4373-27.2163,32.3496-45.3603,60.0257-45.3603Z" fill="#fff" stroke-width="0"/>
  <path d="M1326.1727,105.4711h-38.9315v195.7104h38.9315V105.4711Z" fill="#fff" stroke-width="0"/>
  <path d="M1326.1727,56.5708v7.5488c0,22.2594-19.4668,41.3519-38.9315,41.3519v-48.9007h38.9315Z" fill="#fff" stroke-width="0"/>
</svg>